<svg width="40" height="40" viewBox="0 0 40 40" fill="none" xmlns="http://www.w3.org/2000/svg">
  <!-- Book base -->
  <path d="M8 10C8 8.89543 8.89543 8 10 8H30C31.1046 8 32 8.89543 32 10V32C32 33.1046 31.1046 34 30 34H10C8.89543 34 8 33.1046 8 32V10Z" fill="#3B82F6"/>
  <!-- Book pages -->
  <path d="M12 12H28V30H12V12Z" fill="white"/>
  <!-- Open book effect -->
  <path d="M20 14V28M12 14C14 14 18 13 20 14C22 13 26 14 28 14" stroke="#3B82F6" stroke-width="1.5" stroke-linecap="round"/>
  <!-- Pen/pencil -->
  <path d="M24 6L26 4L30 8L28 10L24 6Z" fill="#0F766E"/>
  <path d="M22 8L24 6L28 10L26 12L22 8Z" fill="#14B8A6"/>
  <path d="M20 10L22 8L26 12L24 14L20 10Z" fill="#0F766E"/>
</svg>
